<svg xmlns="http://www.w3.org/2000/svg" viewBox="38 30 100 44" role="img" aria-label="ClassPulse"><defs><filter id="glow" x="-200%" y="-30%" width="500%" height="160%"><feGaussianBlur stdDeviation="3"/></filter><linearGradient id="g4" x1="0" y1="0" x2="0" y2="1"><stop offset="0" stop-color="#1e1b4b"/><stop offset=".5" stop-color="#3730a3"/><stop offset="1" stop-color="#4f46e5"/></linearGradient></defs><rect x="44.00" y="49" width="1.00" height="9" rx="0.50" fill="rgba(79,70,229,0.40)"/><rect x="49.00" y="47" width="2.00" height="13" rx="1.00" fill="rgba(79,70,229,0.40)"/><rect x="54.00" y="41" width="2.00" height="25" rx="1.00" fill="rgba(79,70,229,0.62)"/><rect x="60.00" y="48" width="2.00" height="11" rx="1.00" fill="rgba(79,70,229,0.40)"/><rect x="65.00" y="37" width="2.00" height="33" rx="1.00" fill="url(#g4)"/><rect x="71.00" y="44" width="2.00" height="19" rx="1.00" fill="rgba(79,70,229,0.75)"/><rect x="76.00" y="39" width="2.00" height="29" rx="1.00" fill="#1d7fb8"/><rect x="82.00" y="48" width="2.00" height="11" rx="1.00" fill="rgba(79,70,229,0.40)"/><rect x="87.00" y="45" width="2.00" height="17" rx="1.00" fill="rgba(79,70,229,0.50)"/><rect x="93.00" y="51" width="2.00" height="5" rx="1.00" fill="rgba(79,70,229,0.40)"/><rect x="98.00" y="42" width="2.00" height="23" rx="1.00" fill="rgba(79,70,229,0.56)"/><rect x="104.00" y="38" width="2.00" height="31" rx="1.00" fill="#1e1b4b"/><rect x="109.00" y="46" width="2.00" height="15" rx="1.00" fill="rgba(79,70,229,0.73)"/><rect x="115.00" y="49" width="1.00" height="9" rx="0.50" fill="rgba(79,70,229,0.40)"/><rect x="120.00" y="44" width="2.00" height="19" rx="1.00" fill="rgba(79,70,229,0.44)"/><rect x="126.00" y="48" width="1.00" height="11" rx="0.50" fill="rgba(79,70,229,0.40)"/><rect x="132.00" y="51" width="1.00" height="5" rx="0.50" fill="rgba(79,70,229,0.40)"/></svg>
